<svg id="Слой_1" data-name="Слой 1" xmlns="http://www.w3.org/2000/svg" viewBox="0 0 435.87 220.35"><defs><style>.cls-1{fill:#00ff7d;}</style></defs><path class="cls-1" d="M275.13,310.7q-1.51-.88-6.77-.88-4.78,0-6.77,1.23c-1.33.82-2.46,3.13-3.39,6.95q-4,14.83-6.42,18.92a8.26,8.26,0,0,1-7.6,4.09h-6.65V190.34q0-5.72,5.84-7.7c2.1-.71,3.4-1.5,3.91-2.4s.76-2.63.76-5.2q0-6.42-1.11-7.88c-.74-1-2.12-1.46-4.15-1.46H188.94c-2,0-3.27.41-3.74,1.23s-.7,2.94-.7,6.36a16.86,16.86,0,0,0,.82,6.19q.83,1.88,4.44,3.39a6.37,6.37,0,0,1,4.2,6.19V327.81q0,10.15-6.65,12.26a4.36,4.36,0,0,0-2.75,2.05c-.43.89-.64,2.9-.64,6,0,4.05,1.63,6.07,4.91,6.07h76.84c2.26,0,3.76-.46,4.5-1.4s1.34-2.84,1.81-5.72l4.09-27.91a37.2,37.2,0,0,0,.58-5.26A3.36,3.36,0,0,0,275.13,310.7Z" transform="translate(-183.92 -165.7)"/><path class="cls-1" d="M381.22,230.68,351,273.55l29.48,43.35q6.31-18.56,6.32-45.74Q386.79,247.31,381.22,230.68ZM335.4,193q-19.23,0-32.22,14.53h.71l19.46,29.33c5.08,7.61,9.31,14.66,13.82,22.28H338c4.51-8.18,9-15.23,13.53-22.57l17.93-27.14Q355.46,193,335.4,193Zm15.31,120.28c-5.36-7.89-9.87-15.51-14.67-23.69h-.56c-4.52,8.18-9.31,15.51-14.39,23.69l-18,28a51.26,51.26,0,0,0,4.76,4.68,39.52,39.52,0,0,0,26.74,9.81q19.41,0,33.26-16.23ZM290.9,228.72q-6.66,18.54-6.66,46.42,0,28.38,6.14,44.73l.16.42,32-45.9Z" transform="translate(-183.92 -165.7)"/><path class="cls-1" d="M614.22,231.68,584,274.55l29.48,43.35q6.31-18.56,6.32-45.74Q619.79,248.31,614.22,231.68ZM568.4,194q-19.23,0-32.22,14.53h.71l19.46,29.33c5.08,7.61,9.31,14.66,13.82,22.28H571c4.51-8.18,9-15.23,13.53-22.57l17.93-27.14Q588.45,194,568.4,194Zm15.31,120.28c-5.36-7.89-9.87-15.51-14.67-23.69h-.56c-4.52,8.18-9.31,15.51-14.39,23.69l-18,28a51.26,51.26,0,0,0,4.76,4.68,39.52,39.52,0,0,0,26.74,9.81q19.41,0,33.26-16.23ZM523.9,229.72q-6.66,18.54-6.66,46.42,0,28.38,6.14,44.73l.16.42,32-45.9Z" transform="translate(-183.92 -165.7)"/><path class="cls-1" d="M493.72,330.58q-10.86-7-27.91-7H433.92q-12.74,0-12.73-5.73c0-2.17,1.38-4.2,4.15-6.07a14.18,14.18,0,0,1,7.88-2.8,28.93,28.93,0,0,1,6,.93,50.33,50.33,0,0,0,13.31,2q19.5,0,34.4-15.9t14.89-43.08q0-30.84-24.31-49a1.54,1.54,0,0,1-.14-2.36q13.82-13.11,13.82-22.91a11.72,11.72,0,0,0-4.21-9.11q-4.2-3.74-13.31-3.74-15,0-14.95,10.86,0,5.37,6.31,9.11,4.67,2.69,4.67,5.84c0,1.36-1.09,3.19-3.27,5.47a1.51,1.51,0,0,1-1.41.43,70.71,70.71,0,0,0-13.89-1.69q-20.91,0-35.56,16.87t-14.66,42.92q0,27.87,19.67,44.67a1.53,1.53,0,0,1-.38,2.56q-20.58,9.09-20.58,26.47,0,14.79,13.28,21.92a1.53,1.53,0,0,1-.06,2.71h0q-6.76,3.39-9.46,6.25t-2.68,7.89q0,9.33,13.13,13.66t34.75,4.32q56.06,0,56.06-32.93Q504.58,337.58,493.72,330.58ZM452.5,238A16.5,16.5,0,1,1,436,254.5,16.5,16.5,0,0,1,452.5,238Z" transform="translate(-183.92 -165.7)"/></svg>